<?xml version="1.0" encoding="UTF-8"?>
<svg width="14px" height="14px" viewBox="0 0 14 14" version="1.1" xmlns="http://www.w3.org/2000/svg" xmlns:xlink="http://www.w3.org/1999/xlink">
    <title>画板</title>
    <defs>
        <polygon id="path-1" points="0 0 14 0 14 10.8286834 0 10.8286834"></polygon>
        <polygon id="path-3" points="0 0 3.82363235 0 3.82363235 5.72674519 0 5.72674519"></polygon>
    </defs>
    <g id="web界面" stroke="none" stroke-width="1" fill="none" fill-rule="evenodd">
        <g id="画板" transform="translate(-91.000000, -25.000000)">
            <g id="编组-2备份-3" transform="translate(91.000000, 25.000000)">
                <rect id="矩形" x="0" y="0" width="14" height="14"></rect>
                <g id="编组备份" transform="translate(0.000000, 1.000000)">
                    <g id="编组">
                        <mask id="mask-2" fill="white">
                            <use xlink:href="#path-1"></use>
                        </mask>
                        <g id="Clip-2"></g>
                        <path d="M10.8711631,2.73851265 C10.1942529,1.0898976 8.63532953,0 6.91540373,0 C4.56896853,0 2.65513983,1.97906273 2.61733926,4.41249101 C1.14171713,4.62409347 0,5.97487081 0,7.60609388 C0,9.38297481 1.36922054,10.8286834 3.0534458,10.8286834 L4.10556158,10.8286834 C4.33516503,10.8286834 4.52066781,10.6366469 4.52066781,10.3996811 L4.52066781,10.3989565 C4.52066781,10.1619907 4.33586504,9.96995423 4.10626159,9.96995423 L4.10556158,9.96995423 L3.0534458,9.96995423 C1.82702741,9.96995423 0.829512443,8.90976794 0.829512443,7.60609388 C0.829512443,6.28067985 1.79202688,5.2429582 3.02124532,5.2429582 C3.24454867,5.2429582 3.42795142,5.05961771 3.43565153,4.82844927 L3.44615169,4.50234959 C3.44615169,2.49285089 5.00297504,0.858729159 6.91610374,0.858729159 C8.37072556,0.858729159 9.68394526,1.82905688 10.1830527,3.27404079 C10.2369536,3.42984397 10.3727556,3.5399932 10.532358,3.55666052 C12.0359805,3.71391303 13.1699975,5.08932902 13.1699975,6.75606072 C13.1699975,8.52714431 11.8609779,9.96995423 10.2516538,9.96995423 L9.81764726,9.96995423 C9.58874383,9.96995423 9.40254104,10.161266 9.40254104,10.3982318 L9.40254104,10.3989565 C9.40184103,10.6359222 9.58804382,10.8286834 9.81694725,10.8286834 L9.81764726,10.8286834 L10.2516538,10.8286834 C12.3180848,10.8286834 14.00021,9.00180052 14.00021,6.75606072 C14.00021,4.74076469 12.6715901,3.06026434 10.8711631,2.73851265" id="Fill-1" fill="#FE631D" mask="url(#mask-2)"></path>
                    </g>
                    <g id="编组" transform="translate(5.254384, 7.273255)">
                        <mask id="mask-4" fill="white">
                            <use xlink:href="#path-3"></use>
                        </mask>
                        <g id="Clip-4"></g>
                        <path d="M2.20590809,0.126091876 C2.16740751,0.0855105829 2.12120682,0.0536252808 2.07080606,0.0326099681 C1.96930454,-0.0108699894 1.85520283,-0.0108699894 1.75370131,0.0326099681 C1.70330055,0.0536252808 1.65709986,0.0855105829 1.61859928,0.126091876 L0.121276819,1.67470303 C-0.0404256064,1.84210086 -0.0404256064,2.1138506 0.121276819,2.2819731 C0.282979245,2.44937093 0.546183193,2.44937093 0.707885618,2.2819731 L1.49749746,1.46527456 L1.49749746,5.29730814 C1.49749746,5.53499858 1.68230023,5.72703506 1.91190368,5.72703506 C2.14150712,5.72703506 2.32700991,5.53499858 2.32700991,5.29730814 L2.32700991,1.46599923 L3.11522173,2.2819731 C3.27762416,2.44937093 3.5401281,2.44937093 3.70113052,2.28269776 C3.70183053,2.28269776 3.70183053,2.2819731 3.70183053,2.2819731 C3.86423296,2.11457526 3.86423296,1.84282553 3.70183053,1.67542769 L3.70183053,1.67470303 L2.20590809,0.126091876 Z" id="Fill-3" fill="#FE631D" mask="url(#mask-4)"></path>
                    </g>
                </g>
            </g>
        </g>
    </g>
</svg>