<?xml version="1.0" encoding="UTF-8"?>
<svg width="50px" height="50px" viewBox="0 0 50 50" version="1.1" xmlns="http://www.w3.org/2000/svg" xmlns:xlink="http://www.w3.org/1999/xlink">
    <title>画板</title>
    <defs>
        <polygon id="path-1" points="0 0 44 0 44 43 0 43"></polygon>
    </defs>
    <g id="web界面" stroke="none" stroke-width="1" fill="none" fill-rule="evenodd">
        <g id="画板" transform="translate(-85.000000, -60.000000)">
            <g id="编组-30备份" transform="translate(85.000000, 60.000000)">
                <rect id="矩形" x="0" y="0" width="50" height="50"></rect>
                <g id="编组备份-26" transform="translate(3.000000, 4.000000)">
                    <mask id="mask-2" fill="white">
                        <use xlink:href="#path-1"></use>
                    </mask>
                    <g id="Clip-2"></g>
                    <path d="M30.8,26.4612332 L36.66784,26.4612332 C37.47392,26.4612332 38.13216,27.2034336 38.13216,28.1163005 L38.13216,34.7286321 C38.13216,35.641499 37.47392,36.3836995 36.66784,36.3836995 L30.8,36.3836995 C29.9904,36.3836995 29.33216,35.641499 29.33216,34.7286321 L29.33216,28.1163005 C29.33216,27.2034336 29.9904,26.4612332 30.8,26.4612332 M7.33216,6.61630054 L13.2,6.61630054 C14.0096,6.61630054 14.66784,7.35850102 14.66784,8.27136792 L14.66784,14.8836995 C14.66784,15.7965664 14.0096,16.5387668 13.2,16.5387668 L7.33216,16.5387668 C6.52256,16.5387668 5.86784,15.7965664 5.86784,14.8836995 L5.86784,8.27136792 C5.86784,7.35850102 6.52256,6.61630054 7.33216,6.61630054 M24.93216,9.92246631 L36.66784,9.92246631 C37.47392,9.92246631 38.13216,10.6646668 38.13216,11.5775337 L38.13216,14.8836995 C38.13216,15.7965664 37.47392,16.5387668 36.66784,16.5387668 L24.93216,16.5387668 C24.12256,16.5387668 23.46784,15.7965664 23.46784,14.8836995 L23.46784,11.5775337 C23.46784,10.6646668 24.12256,9.92246631 24.93216,9.92246631 M1.46784,36.3836995 L19.06784,36.3836995 C19.87744,36.3836995 20.53216,37.1258999 20.53216,38.0387668 L20.53216,41.3449326 C20.53216,42.2577995 19.87744,43 19.06784,43 L1.46784,43 C0.65824,43 0,42.2577995 0,41.3449326 L0,38.0387668 C0,37.1258999 0.65824,36.3836995 1.46784,36.3836995 M24.93216,0 L42.53216,0 C43.34176,0 44,0.74220048 44,1.65506738 L44,4.96123315 C44,5.87410006 43.34176,6.61630054 42.53216,6.61630054 L24.93216,6.61630054 C24.12256,6.61630054 23.46784,5.87410006 23.46784,4.96123315 L23.46784,1.65506738 C23.46784,0.74220048 24.12256,0 24.93216,0 M1.46784,26.4612332 L10.26784,26.4612332 C11.07744,26.4612332 11.73216,27.2034336 11.73216,28.1163005 L11.73216,31.4224663 C11.73216,32.3353332 11.07744,33.0775337 10.26784,33.0775337 L1.46784,33.0775337 C0.65824,33.0775337 0,32.3353332 0,31.4224663 L0,28.1163005 C0,27.2034336 0.65824,26.4612332 1.46784,26.4612332 M16.13216,26.4612332 L19.06784,26.4612332 C19.87744,26.4612332 20.53216,27.2034336 20.53216,28.1163005 L20.53216,31.4224663 C20.53216,32.3353332 19.87744,33.0775337 19.06784,33.0775337 L16.13216,33.0775337 C15.32256,33.0775337 14.66784,32.3353332 14.66784,31.4224663 L14.66784,28.1163005 C14.66784,27.2034336 15.32256,26.4612332 16.13216,26.4612332 M26.4,19.8449326 L41.06784,19.8449326 C42.68704,19.8449326 44,21.3293336 44,23.1550674 L44,39.6898652 C44,41.519568 42.68704,43 41.06784,43 L26.4,43 C24.7808,43 23.46784,41.519568 23.46784,39.6898652 L23.46784,23.1550674 C23.46784,21.3293336 24.7808,19.8449326 26.4,19.8449326 M2.93216,0 L17.6,0 C19.2192,0 20.53216,1.48440096 20.53216,3.31013476 L20.53216,19.8449326 C20.53216,21.6706664 19.2192,23.1550674 17.6,23.1550674 L2.93216,23.1550674 C1.31296,23.1550674 0,21.6706664 0,19.8449326 L0,3.31013476 C0,1.48440096 1.31296,0 2.93216,0" id="Fill-1" fill="#575757" mask="url(#mask-2)"></path>
                </g>
            </g>
        </g>
    </g>
</svg>