<?xml version="1.0" encoding="UTF-8"?>
<svg width="20px" height="20px" viewBox="0 0 20 20" version="1.1" xmlns="http://www.w3.org/2000/svg" xmlns:xlink="http://www.w3.org/1999/xlink">
    <title>画板</title>
    <defs>
        <polygon id="path-1" points="0 0 17 0 17 16 0 16"></polygon>
    </defs>
    <g id="web界面" stroke="none" stroke-width="1" fill="none" fill-rule="evenodd">
        <g id="画板" transform="translate(-55.000000, -69.000000)">
            <g id="编组-29备份" transform="translate(55.000000, 69.000000)">
                <rect id="矩形" x="0" y="0" width="20" height="20"></rect>
                <g id="编组备份-24" transform="translate(1.000000, 2.000000)">
                    <mask id="mask-2" fill="white">
                        <use xlink:href="#path-1"></use>
                    </mask>
                    <g id="Clip-2"></g>
                    <path d="M11.9,9.84604024 L14.16712,9.84604024 C14.47856,9.84604024 14.73288,10.1222079 14.73288,10.4618793 L14.73288,12.9222817 C14.73288,13.2619531 14.47856,13.5381207 14.16712,13.5381207 L11.9,13.5381207 C11.5872,13.5381207 11.33288,13.2619531 11.33288,12.9222817 L11.33288,10.4618793 C11.33288,10.1222079 11.5872,9.84604024 11.9,9.84604024 M2.83288,2.46187927 L5.1,2.46187927 C5.4128,2.46187927 5.66712,2.73804689 5.66712,3.07771829 L5.66712,5.53812073 C5.66712,5.87779214 5.4128,6.15395976 5.1,6.15395976 L2.83288,6.15395976 C2.52008,6.15395976 2.26712,5.87779214 2.26712,5.53812073 L2.26712,3.07771829 C2.26712,2.73804689 2.52008,2.46187927 2.83288,2.46187927 M9.63288,3.69208049 L14.16712,3.69208049 C14.47856,3.69208049 14.73288,3.96824811 14.73288,4.30791951 L14.73288,5.53812073 C14.73288,5.87779214 14.47856,6.15395976 14.16712,6.15395976 L9.63288,6.15395976 C9.32008,6.15395976 9.06712,5.87779214 9.06712,5.53812073 L9.06712,4.30791951 C9.06712,3.96824811 9.32008,3.69208049 9.63288,3.69208049 M0.56712,13.5381207 L7.36712,13.5381207 C7.67992,13.5381207 7.93288,13.8142884 7.93288,14.1539598 L7.93288,15.384161 C7.93288,15.7238324 7.67992,16 7.36712,16 L0.56712,16 C0.25432,16 0,15.7238324 0,15.384161 L0,14.1539598 C0,13.8142884 0.25432,13.5381207 0.56712,13.5381207 M9.63288,0 L16.43288,0 C16.74568,0 17,0.27616762 17,0.615839025 L17,1.84604024 C17,2.18571165 16.74568,2.46187927 16.43288,2.46187927 L9.63288,2.46187927 C9.32008,2.46187927 9.06712,2.18571165 9.06712,1.84604024 L9.06712,0.615839025 C9.06712,0.27616762 9.32008,0 9.63288,0 M0.56712,9.84604024 L3.96712,9.84604024 C4.27992,9.84604024 4.53288,10.1222079 4.53288,10.4618793 L4.53288,11.6920805 C4.53288,12.0317519 4.27992,12.3079195 3.96712,12.3079195 L0.56712,12.3079195 C0.25432,12.3079195 0,12.0317519 0,11.6920805 L0,10.4618793 C0,10.1222079 0.25432,9.84604024 0.56712,9.84604024 M6.23288,9.84604024 L7.36712,9.84604024 C7.67992,9.84604024 7.93288,10.1222079 7.93288,10.4618793 L7.93288,11.6920805 C7.93288,12.0317519 7.67992,12.3079195 7.36712,12.3079195 L6.23288,12.3079195 C5.92008,12.3079195 5.66712,12.0317519 5.66712,11.6920805 L5.66712,10.4618793 C5.66712,10.1222079 5.92008,9.84604024 6.23288,9.84604024 M10.2,7.38416097 L15.86712,7.38416097 C16.49272,7.38416097 17,7.93649622 17,8.61583903 L17,14.7683219 C17,15.4491416 16.49272,16 15.86712,16 L10.2,16 C9.5744,16 9.06712,15.4491416 9.06712,14.7683219 L9.06712,8.61583903 C9.06712,7.93649622 9.5744,7.38416097 10.2,7.38416097 M1.13288,0 L6.8,0 C7.4256,0 7.93288,0.552335241 7.93288,1.23167805 L7.93288,7.38416097 C7.93288,8.06350378 7.4256,8.61583903 6.8,8.61583903 L1.13288,8.61583903 C0.50728,8.61583903 0,8.06350378 0,7.38416097 L0,1.23167805 C0,0.552335241 0.50728,0 1.13288,0" id="Fill-1" fill="#575757" mask="url(#mask-2)"></path>
                </g>
            </g>
        </g>
    </g>
</svg>